<svg preserveAspectRatio="none" width="100%" height="100%" overflow="visible" style="display: block;" viewBox="0 0 28 28" fill="none" xmlns="http://www.w3.org/2000/svg">
<g id="handingoff-symbol">
<path d="M10.1196 24.509C10.4759 25.1045 10.9755 25.6039 11.5709 25.9603L11.8388 26.1205L11.5709 26.2807C10.9755 26.6371 10.476 27.1367 10.1196 27.7321L9.95936 28L9.79917 27.7321C9.44275 27.1367 8.94332 26.6371 8.3478 26.2807L8.0799 26.1205L8.3478 25.9603C8.94345 25.6039 9.44272 25.1046 9.79917 24.509L9.95936 24.2411L10.1196 24.509Z" fill="var(--fill-0, white)"/>
<path d="M14.1602 24.509C14.5166 25.1046 15.016 25.6039 15.6116 25.9603L15.8795 26.1205L15.6116 26.2807C15.0162 26.6371 14.5166 27.1368 14.1602 27.7321L14 28L13.8398 27.7321C13.4834 27.1366 12.984 26.6371 12.3884 26.2807L12.1205 26.1205L12.3884 25.9603C12.9839 25.6039 13.4834 25.1045 13.8398 24.509L14 24.2411L14.1602 24.509Z" fill="var(--fill-0, white)"/>
<path d="M18.2008 24.509C18.5573 25.1046 19.0566 25.6039 19.6522 25.9603L19.9201 26.1205L19.6522 26.2807C19.0568 26.6371 18.5572 27.1368 18.2008 27.7321L18.0406 28L17.8804 27.7321C17.524 27.1366 17.0246 26.6371 16.4291 26.2807L16.1612 26.1205L16.4291 25.9603C17.0245 25.6039 17.5241 25.1045 17.8804 24.509L18.0406 24.2411L18.2008 24.509Z" fill="var(--fill-0, white)"/>
<path d="M6.07891 20.4683C6.43525 21.0638 6.93494 21.5633 7.53028 21.9197L7.79819 22.0799L7.53028 22.2401C6.93498 22.5965 6.43523 23.0961 6.07891 23.6915L5.91872 23.9594L5.75853 23.6915C5.40211 23.096 4.90269 22.5965 4.30716 22.2401L4.03926 22.0799L4.30716 21.9197C4.90273 21.5633 5.40209 21.0639 5.75853 20.4683L5.91872 20.2004L6.07891 20.4683Z" fill="var(--fill-0, white)"/>
<path d="M10.1196 20.4683C10.476 21.0639 10.9754 21.5633 11.5709 21.9197L11.8388 22.0799L11.5709 22.2401C10.9754 22.5965 10.4759 23.096 10.1196 23.6915L9.95936 23.9594L9.79917 23.6915C9.44274 23.0959 8.9434 22.5965 8.3478 22.2401L8.0799 22.0799L8.3478 21.9197C8.94344 21.5633 9.44272 21.064 9.79917 20.4683L9.95936 20.2004L10.1196 20.4683Z" fill="var(--fill-0, white)"/>
<path d="M14.1602 20.4683C14.5166 21.0639 15.0161 21.5633 15.6116 21.9197L15.8795 22.0799L15.6116 22.2401C15.0161 22.5965 14.5166 23.096 14.1602 23.6915L14 23.9594L13.8398 23.6915C13.4834 23.096 12.9839 22.5965 12.3884 22.2401L12.1205 22.0799L12.3884 21.9197C12.984 21.5633 13.4834 21.0639 13.8398 20.4683L14 20.2004L14.1602 20.4683Z" fill="var(--fill-0, white)"/>
<path d="M18.2008 20.4683C18.5573 21.0639 19.0567 21.5633 19.6522 21.9197L19.9201 22.0799L19.6522 22.2401C19.0567 22.5965 18.5572 23.096 18.2008 23.6915L18.0406 23.9594L17.8804 23.6915C17.5241 23.096 17.0246 22.5965 16.4291 22.2401L16.1612 22.0799L16.4291 21.9197C17.0246 21.5633 17.5241 21.0639 17.8804 20.4683L18.0406 20.2004L18.2008 20.4683Z" fill="var(--fill-0, white)"/>
<path d="M22.2401 20.4683C22.5965 21.0639 23.096 21.5633 23.6915 21.9197L23.9594 22.0799L23.6915 22.2401C23.0961 22.5965 22.5964 23.096 22.2401 23.6915L22.0799 23.9594L21.9197 23.6915C21.5633 23.096 21.0639 22.5965 20.4683 22.2401L20.2004 22.0799L20.4683 21.9197C21.0639 21.5633 21.5633 21.0639 21.9197 20.4683L22.0799 20.2004L22.2401 20.4683Z" fill="var(--fill-0, white)"/>
<path d="M2.03965 16.4277C2.39607 17.0233 2.8955 17.5226 3.49102 17.8791L3.75893 18.0393L3.49102 18.1994C2.89566 18.5558 2.39605 19.0555 2.03965 19.6508L1.87946 19.9187L1.71927 19.6508C1.36285 19.0554 0.863427 18.5558 0.267903 18.1994L0 18.0393L0.267903 17.8791C0.863403 17.5226 1.36289 17.0232 1.71927 16.4277L1.87946 16.1598L2.03965 16.4277Z" fill="var(--fill-0, white)"/>
<path d="M6.07891 16.4277C6.4352 17.0231 6.93504 17.5227 7.53028 17.8791L7.79819 18.0393L7.53028 18.1994C6.9349 18.5558 6.43527 19.0554 6.07891 19.6508L5.91872 19.9187L5.75853 19.6508C5.40212 19.0556 4.90256 18.5557 4.30716 18.1994L4.03926 18.0393L4.30716 17.8791C4.90282 17.5226 5.40207 17.0234 5.75853 16.4277L5.91872 16.1598L6.07891 16.4277Z" fill="var(--fill-0, white)"/>
<path d="M10.1196 16.4277C10.4759 17.0232 10.9755 17.5226 11.5709 17.8791L11.8388 18.0393L11.5709 18.1994C10.9755 18.5558 10.476 19.0554 10.1196 19.6508L9.95936 19.9187L9.79917 19.6508C9.44275 19.0555 8.94327 18.5558 8.3478 18.1994L8.0799 18.0393L8.3478 17.8791C8.94341 17.5226 9.44274 17.0233 9.79917 16.4277L9.95936 16.1598L10.1196 16.4277Z" fill="var(--fill-0, white)"/>
<path d="M18.2008 16.4277C18.5573 17.0233 19.0566 17.5226 19.6522 17.8791L19.9201 18.0393L19.6522 18.1994C19.0569 18.5557 18.5572 19.0555 18.2008 19.6508L18.0406 19.9187L17.8804 19.6508C17.524 19.0554 17.0246 18.5558 16.4291 18.1994L16.1612 18.0393L16.4291 17.8791C17.0245 17.5226 17.5241 17.0232 17.8804 16.4277L18.0406 16.1598L18.2008 16.4277Z" fill="var(--fill-0, white)"/>
<path d="M22.2401 16.4277C22.5964 17.0231 23.0961 17.5227 23.6915 17.8791L23.9594 18.0393L23.6915 18.1994C23.096 18.5558 22.5965 19.0554 22.2401 19.6508L22.0799 19.9187L21.9197 19.6508C21.5633 19.0555 21.0638 18.5558 20.4683 18.1994L20.2004 18.0393L20.4683 17.8791C21.064 17.5226 21.5633 17.0234 21.9197 16.4277L22.0799 16.1598L22.2401 16.4277Z" fill="var(--fill-0, white)"/>
<path d="M26.2807 16.4277C26.6371 17.0232 27.1368 17.5227 27.7321 17.8791L28 18.0393L27.7321 18.1994C27.1367 18.5558 26.6371 19.0554 26.2807 19.6508L26.1205 19.9187L25.9603 19.6508C25.6039 19.0555 25.1044 18.5558 24.509 18.1994L24.2411 18.0393L24.509 17.8791C25.1046 17.5226 25.6039 17.0234 25.9603 16.4277L26.1205 16.1598L26.2807 16.4277Z" fill="var(--fill-0, white)"/>
<path d="M2.03965 12.3884C2.39607 12.9839 2.89557 13.4834 3.49102 13.8398L3.75893 14L3.49102 14.1602C2.89551 14.5166 2.39607 15.016 2.03965 15.6116L1.87946 15.8795L1.71927 15.6116C1.36289 15.0161 0.863396 14.5166 0.267903 14.1602L0 14L0.267903 13.8398C0.863511 13.4834 1.36282 12.984 1.71927 12.3884L1.87946 12.1205L2.03965 12.3884Z" fill="var(--fill-0, white)"/>
<path d="M6.07891 12.3884C6.43528 12.9839 6.93487 13.4834 7.53028 13.8398L7.79819 14L7.53028 14.1602C6.93504 14.5166 6.4352 15.0163 6.07891 15.6116L5.91872 15.8795L5.75853 15.6116C5.4021 15.016 4.90277 14.5166 4.30716 14.1602L4.03926 14L4.30716 13.8398C4.90264 13.4835 5.4021 12.9839 5.75853 12.3884L5.91872 12.1205L6.07891 12.3884Z" fill="var(--fill-0, white)"/>
<path d="M22.2401 12.3884C22.5965 12.984 23.096 13.4834 23.6915 13.8398L23.9594 14L23.6915 14.1602C23.0961 14.5166 22.5964 15.0162 22.2401 15.6116L22.0799 15.8795L21.9197 15.6116C21.5633 15.016 21.064 14.5166 20.4683 14.1602L20.2004 14L20.4683 13.8398C21.0639 13.4834 21.5633 12.9839 21.9197 12.3884L22.0799 12.1205L22.2401 12.3884Z" fill="var(--fill-0, white)"/>
<path d="M26.2807 12.3884C26.6371 12.984 27.1366 13.4834 27.7321 13.8398L28 14L27.7321 14.1602C27.1368 14.5166 26.6371 15.0162 26.2807 15.6116L26.1205 15.8795L25.9603 15.6116C25.6039 15.016 25.1046 14.5166 24.509 14.1602L24.2411 14L24.509 13.8398C25.1045 13.4834 25.6039 12.9839 25.9603 12.3884L26.1205 12.1205L26.2807 12.3884Z" fill="var(--fill-0, white)"/>
<path d="M2.03965 8.3478C2.39609 8.94342 2.89546 9.44273 3.49102 9.79917L3.75893 9.95936L3.49102 10.1196C2.89557 10.4759 2.39606 10.9755 2.03965 11.5709L1.87946 11.8388L1.71927 11.5709C1.36285 10.9754 0.863482 10.476 0.267903 10.1196L0 9.95936L0.267903 9.79917C0.86347 9.44272 1.36286 8.94339 1.71927 8.3478L1.87946 8.0799L2.03965 8.3478Z" fill="var(--fill-0, white)"/>
<path d="M6.07891 8.3478C6.43523 8.94323 6.93497 9.44276 7.53028 9.79917L7.79819 9.95936L7.53028 10.1196C6.93494 10.4759 6.43524 10.9755 6.07891 11.5709L5.91872 11.8388L5.75853 11.5709C5.40211 10.9755 4.90264 10.4759 4.30716 10.1196L4.03926 9.95936L4.30716 9.79917C4.90277 9.44275 5.40208 8.94339 5.75853 8.3478L5.91872 8.0799L6.07891 8.3478Z" fill="var(--fill-0, white)"/>
<path d="M10.1196 8.3478C10.4759 8.94336 10.9754 9.44274 11.5709 9.79917L11.8388 9.95936L11.5709 10.1196C10.9754 10.476 10.476 10.9754 10.1196 11.5709L9.95936 11.8388L9.79917 11.5709C9.44274 10.9754 8.94336 10.4759 8.3478 10.1196L8.0799 9.95936L8.3478 9.79917C8.94346 9.44271 9.44271 8.94346 9.79917 8.3478L9.95936 8.0799L10.1196 8.3478Z" fill="var(--fill-0, white)"/>
<path d="M18.2008 8.3478C18.5573 8.9434 19.0567 9.44274 19.6522 9.79917L19.9201 9.95936L19.6522 10.1196C19.0568 10.4759 18.5572 10.9755 18.2008 11.5709L18.0406 11.8388L17.8804 11.5709C17.5241 10.9754 17.0246 10.476 16.4291 10.1196L16.1612 9.95936L16.4291 9.79917C17.0246 9.44273 17.5241 8.94334 17.8804 8.3478L18.0406 8.0799L18.2008 8.3478Z" fill="var(--fill-0, white)"/>
<path d="M22.2401 8.3478C22.5964 8.94329 23.0961 9.44275 23.6915 9.79917L23.9594 9.95936L23.6915 10.1196C23.096 10.476 22.5965 10.9755 22.2401 11.5709L22.0799 11.8388L21.9197 11.5709C21.5633 10.9755 21.0639 10.4759 20.4683 10.1196L20.2004 9.95936L20.4683 9.79917C21.064 9.44273 21.5633 8.94343 21.9197 8.3478L22.0799 8.0799L22.2401 8.3478Z" fill="var(--fill-0, white)"/>
<path d="M26.2807 8.3478C26.6371 8.94331 27.1367 9.44275 27.7321 9.79917L28 9.95936L27.7321 10.1196C27.1367 10.476 26.6371 10.9755 26.2807 11.5709L26.1205 11.8388L25.9603 11.5709C25.6039 10.9755 25.1045 10.4759 24.509 10.1196L24.2411 9.95936L24.509 9.79917C25.1046 9.44272 25.6039 8.94345 25.9603 8.3478L26.1205 8.0799L26.2807 8.3478Z" fill="var(--fill-0, white)"/>
<path d="M6.07891 4.30854C6.4353 4.90401 6.93487 5.40352 7.53028 5.75991L7.79819 5.9201L7.53028 6.08029C6.93511 6.43667 6.43517 6.93641 6.07891 7.53166L5.91872 7.79957L5.75853 7.53166C5.40209 6.9361 4.90278 6.43672 4.30716 6.08029L4.03926 5.9201L4.30716 5.75991C4.90256 5.40362 5.40211 4.90385 5.75853 4.30854L5.91872 4.04064L6.07891 4.30854Z" fill="var(--fill-0, white)"/>
<path d="M10.1196 4.30854C10.476 4.90397 10.9755 5.40356 11.5709 5.75991L11.8388 5.9201L11.5709 6.08029C10.9756 6.43669 10.4759 6.93628 10.1196 7.53166L9.95936 7.79957L9.79917 7.53166C9.44277 6.93616 8.94334 6.43672 8.3478 6.08029L8.0799 5.9201L8.3478 5.75991C8.94327 5.40357 9.44274 4.90395 9.79917 4.30854L9.95936 4.04064L10.1196 4.30854Z" fill="var(--fill-0, white)"/>
<path d="M14.1602 4.30854C14.5166 4.90387 15.0162 5.40361 15.6116 5.75991L15.8795 5.9201L15.6116 6.08029C15.0161 6.4367 14.5166 6.93615 14.1602 7.53166L14 7.79957L13.8398 7.53166C13.4835 6.93629 12.9838 6.4367 12.3884 6.08029L12.1205 5.9201L12.3884 5.75991C12.984 5.40352 13.4834 4.90405 13.8398 4.30854L14 4.04064L14.1602 4.30854Z" fill="var(--fill-0, white)"/>
<path d="M18.2008 4.30854C18.5572 4.90386 19.0569 5.40361 19.6522 5.75991L19.9201 5.9201L19.6522 6.08029C19.0567 6.43671 18.5572 6.93614 18.2008 7.53166L18.0406 7.79957L17.8804 7.53166C17.5241 6.9363 17.0244 6.4367 16.4291 6.08029L16.1612 5.9201L16.4291 5.75991C17.0246 5.40352 17.524 4.90406 17.8804 4.30854L18.0406 4.04064L18.2008 4.30854Z" fill="var(--fill-0, white)"/>
<path d="M22.2401 4.30854C22.5965 4.90402 23.096 5.40354 23.6915 5.75991L23.9594 5.9201L23.6915 6.08029C23.0962 6.43668 22.5964 6.93635 22.2401 7.53166L22.0799 7.79957L21.9197 7.53166C21.5633 6.9361 21.064 6.43672 20.4683 6.08029L20.2004 5.9201L20.4683 5.75991C21.0638 5.4036 21.5633 4.9039 21.9197 4.30854L22.0799 4.04064L22.2401 4.30854Z" fill="var(--fill-0, white)"/>
<path d="M10.1196 0.267903C10.476 0.863487 10.9754 1.36285 11.5709 1.71927L11.8388 1.87946L11.5709 2.03965C10.9755 2.39606 10.4759 2.89556 10.1196 3.49102L9.95936 3.75893L9.79917 3.49102C9.44273 2.89546 8.94342 2.39609 8.3478 2.03965L8.0799 1.87946L8.3478 1.71927C8.9434 1.36286 9.44272 0.863481 9.79917 0.267903L9.95936 0L10.1196 0.267903Z" fill="var(--fill-0, white)"/>
<path d="M14.1602 0.267903C14.5166 0.863398 15.0161 1.36289 15.6116 1.71927L15.8795 1.87946L15.6116 2.03965C15.016 2.39606 14.5166 2.89552 14.1602 3.49102L14 3.75893L13.8398 3.49102C13.4834 2.89558 12.9839 2.39607 12.3884 2.03965L12.1205 1.87946L12.3884 1.71927C12.984 1.36282 13.4834 0.863502 13.8398 0.267903L14 0L14.1602 0.267903Z" fill="var(--fill-0, white)"/>
<path d="M18.2008 0.267903C18.5572 0.863388 19.0567 1.3629 19.6522 1.71927L19.9201 1.87946L19.6522 2.03965C19.0567 2.39606 18.5572 2.89553 18.2008 3.49102L18.0406 3.75893L17.8804 3.49102C17.5241 2.89559 17.0245 2.39607 16.4291 2.03965L16.1612 1.87946L16.4291 1.71927C17.0246 1.36283 17.524 0.863489 17.8804 0.267903L18.0406 0L18.2008 0.267903Z" fill="var(--fill-0, white)"/>
</g>
</svg>
