<svg preserveAspectRatio="none" width="100%" height="100%" overflow="visible" style="display: block;" viewBox="0 0 48 48" fill="none" xmlns="http://www.w3.org/2000/svg">
<g id="logo-github">
<path d="M0 16C0 7.16344 7.16344 0 16 0H32C40.8366 0 48 7.16344 48 16V32C48 40.8366 40.8366 48 32 48H16C7.16344 48 0 40.8366 0 32V16Z" fill="var(--fill-0, white)" fill-opacity="0.05"/>
<path d="M16 0.5H32C40.5604 0.5 47.5 7.43959 47.5 16V32C47.5 40.5604 40.5604 47.5 32 47.5H16C7.43959 47.5 0.5 40.5604 0.5 32V16C0.5 7.43959 7.43959 0.5 16 0.5Z" stroke="var(--stroke-0, white)" stroke-opacity="0.1"/>
<path id="Vector" fill-rule="evenodd" clip-rule="evenodd" d="M24.0132 8C15.1583 8 8 15.3333 8 24.4056C8 31.6576 12.5866 37.7962 18.9494 39.9689C19.7449 40.1322 20.0363 39.6159 20.0363 39.1815C20.0363 38.8012 20.0101 37.4975 20.0101 36.1392C15.5556 37.1172 14.628 34.1836 14.628 34.1836C13.9121 32.2822 12.8514 31.7936 12.8514 31.7936C11.3935 30.7886 12.9576 30.7886 12.9576 30.7886C14.5749 30.8972 15.4235 32.4726 15.4235 32.4726C16.8549 34.9712 19.1615 34.2652 20.0894 33.8306C20.2218 32.7712 20.6463 32.0379 21.097 31.6306C17.5442 31.2502 13.8062 29.8379 13.8062 23.5363C13.8062 21.7436 14.4421 20.2769 15.4497 19.1363C15.2908 18.729 14.7339 17.0446 15.609 14.7903C15.609 14.7903 16.9611 14.3556 20.0098 16.4743C21.315 16.1152 22.6611 15.9325 24.0132 15.931C25.3653 15.931 26.7436 16.1213 28.0164 16.4743C31.0654 14.3556 32.4175 14.7903 32.4175 14.7903C33.2926 17.0446 32.7354 18.729 32.5764 19.1363C33.6106 20.2769 34.2202 21.7436 34.2202 23.5363C34.2202 29.8379 30.4823 31.2229 26.9029 31.6306C27.4864 32.1466 27.9898 33.1242 27.9898 34.6726C27.9898 36.8725 27.9636 38.6382 27.9636 39.1812C27.9636 39.6159 28.2553 40.1322 29.0505 39.9692C35.4133 37.7959 39.9999 31.6576 39.9999 24.4056C40.0262 15.3333 32.8416 8 24.0132 8Z" fill="var(--fill-0, white)"/>
</g>
</svg>
