<svg preserveAspectRatio="none" width="100%" height="100%" overflow="visible" style="display: block;" viewBox="0 0 122.346 20" fill="none" xmlns="http://www.w3.org/2000/svg">
<g id="handingoff-logo">
<path d="M7.22852 17.5068C7.483 17.9319 7.83959 18.2885 8.26465 18.543L8.45605 18.6572L8.26465 18.7715C7.83938 19.026 7.48308 19.3834 7.22852 19.8086L7.11426 20L6.99902 19.8086C6.74444 19.3834 6.38819 19.026 5.96289 18.7715L5.77148 18.6572L5.96289 18.543C6.38811 18.2885 6.74447 17.932 6.99902 17.5068L7.11426 17.3154L7.22852 17.5068Z" fill="var(--fill-0, white)"/>
<path d="M10.1143 17.5068C10.3688 17.9322 10.726 18.2884 11.1514 18.543L11.3428 18.6572L11.1514 18.7715C10.7261 19.026 10.3688 19.3834 10.1143 19.8086L10 20L9.88574 19.8086C9.63116 19.3832 9.27402 19.0261 8.84863 18.7715L8.65723 18.6572L8.84863 18.543C9.27389 18.2884 9.6312 17.9321 9.88574 17.5068L10 17.3154L10.1143 17.5068Z" fill="var(--fill-0, white)"/>
<path d="M13.001 17.5068C13.2555 17.932 13.612 18.2885 14.0371 18.543L14.2285 18.6572L14.0371 18.7715C13.6119 19.026 13.2555 19.3834 13.001 19.8086L12.8857 20L12.7715 19.8086C12.5169 19.3833 12.1607 19.026 11.7354 18.7715L11.5439 18.6572L11.7354 18.543C12.1604 18.2885 12.517 17.9319 12.7715 17.5068L12.8857 17.3154L13.001 17.5068Z" fill="var(--fill-0, white)"/>
<path fill-rule="evenodd" clip-rule="evenodd" d="M93.3369 6.17188C94.0327 6.17188 94.6328 6.32781 95.1367 6.63965C95.6407 6.95165 96.0074 7.36584 96.2354 7.88184V6.3877H98.4854V15.1543C98.4853 15.97 98.293 16.6598 97.9092 17.2236C97.5372 17.7876 97.0091 18.2074 96.3252 18.4834C95.6532 18.7714 94.8612 18.916 93.9492 18.916C93.1093 18.916 92.389 18.8022 91.7891 18.5742C91.1891 18.3462 90.7031 18.0216 90.3311 17.6016C89.9711 17.1936 89.7192 16.7196 89.5752 16.1797L91.9512 16.0176C92.0712 16.3776 92.2755 16.6603 92.5635 16.8643C92.8635 17.0681 93.3255 17.1699 93.9492 17.1699C94.6572 17.1699 95.2029 17.0076 95.5869 16.6836C95.9709 16.3716 96.1631 15.8799 96.1631 15.208V13.9834C95.9351 14.4514 95.5694 14.8302 95.0654 15.1182C94.5614 15.3942 93.997 15.5322 93.373 15.5322C92.5811 15.5322 91.873 15.34 91.249 14.9561C90.6372 14.5602 90.1575 14.0141 89.8096 13.3184C89.4616 12.6104 89.2871 11.794 89.2871 10.8701C89.2871 9.94612 89.455 9.13545 89.791 8.43945C90.139 7.7316 90.6195 7.18012 91.2314 6.78418C91.8434 6.37625 92.545 6.17191 93.3369 6.17188ZM93.9131 7.97168C93.2051 7.97169 92.6528 8.23568 92.2568 8.76367C91.8729 9.27961 91.6807 9.97571 91.6807 10.8516C91.6807 11.7276 91.8794 12.43 92.2754 12.958C92.6834 13.4739 93.2292 13.7314 93.9131 13.7314C94.5971 13.7314 95.1428 13.4796 95.5508 12.9756C95.9588 12.4596 96.1687 11.7516 96.1807 10.8516C96.1926 10.2519 96.103 9.74213 95.9111 9.32227C95.7311 8.8903 95.4671 8.56003 95.1191 8.33203C94.7831 8.09203 94.3811 7.97168 93.9131 7.97168Z" fill="var(--fill-0, white)"/>
<path d="M4.3418 14.6201C4.59632 15.0454 4.95366 15.4026 5.37891 15.6572L5.57031 15.7715L5.37891 15.8857C4.95369 16.1403 4.59631 16.4976 4.3418 16.9229L4.22754 17.1143L4.11328 16.9229C3.85869 16.4975 3.50155 16.1403 3.07617 15.8857L2.88477 15.7715L3.07617 15.6572C3.50158 15.4027 3.85868 15.0455 4.11328 14.6201L4.22754 14.4287L4.3418 14.6201Z" fill="var(--fill-0, white)"/>
<path d="M7.22852 14.6201C7.48308 15.0455 7.83933 15.4026 8.26465 15.6572L8.45605 15.7715L8.26465 15.8857C7.8394 16.1403 7.48304 16.4976 7.22852 16.9229L7.11426 17.1143L6.99902 16.9229C6.74445 16.4975 6.38827 16.1403 5.96289 15.8857L5.77148 15.7715L5.96289 15.6572C6.38832 15.4026 6.74442 15.0455 6.99902 14.6201L7.11426 14.4287L7.22852 14.6201Z" fill="var(--fill-0, white)"/>
<path d="M10.1143 14.6201C10.3688 15.0455 10.726 15.4027 11.1514 15.6572L11.3428 15.7715L11.1514 15.8857C10.726 16.1403 10.3688 16.4975 10.1143 16.9229L10 17.1143L9.88574 16.9229C9.63118 16.4975 9.27399 16.1403 8.84863 15.8857L8.65723 15.7715L8.84863 15.6572C9.27402 15.4026 9.63117 15.0455 9.88574 14.6201L10 14.4287L10.1143 14.6201Z" fill="var(--fill-0, white)"/>
<path d="M13.001 14.6201C13.2556 15.0455 13.6118 15.4027 14.0371 15.6572L14.2285 15.7715L14.0371 15.8857C13.6118 16.1403 13.2555 16.4976 13.001 16.9229L12.8857 17.1143L12.7715 16.9229C12.517 16.4976 12.1606 16.1403 11.7354 15.8857L11.5439 15.7715L11.7354 15.6572C12.1607 15.4026 12.5169 15.0455 12.7715 14.6201L12.8857 14.4287L13.001 14.6201Z" fill="var(--fill-0, white)"/>
<path d="M15.8857 14.6201C16.1403 15.0455 16.4976 15.4026 16.9229 15.6572L17.1143 15.7715L16.9229 15.8857C16.4976 16.1403 16.1403 16.4976 15.8857 16.9229L15.7715 17.1143L15.6572 16.9229C15.4026 16.4975 15.0455 16.1403 14.6201 15.8857L14.4287 15.7715L14.6201 15.6572C15.0455 15.4026 15.4026 15.0455 15.6572 14.6201L15.7715 14.4287L15.8857 14.6201Z" fill="var(--fill-0, white)"/>
<path fill-rule="evenodd" clip-rule="evenodd" d="M47.6582 6.17188C49.026 6.17196 50.058 6.5199 50.7539 7.21582C51.4619 7.89982 51.8154 8.88401 51.8154 10.168V13.6602C51.8155 13.9117 51.8576 14.0856 51.9414 14.1816C52.0374 14.2776 52.1756 14.3261 52.3555 14.3262H52.6621V16C52.5901 16.024 52.4697 16.0417 52.3018 16.0537C52.1458 16.0657 51.9834 16.0723 51.8154 16.0723C51.4196 16.0722 51.0658 16.0116 50.7539 15.8916C50.4419 15.7596 50.2022 15.5376 50.0342 15.2256C49.9326 15.0296 49.8614 14.7921 49.8213 14.5127C49.708 14.7545 49.5513 14.9802 49.3496 15.1895C49.0377 15.5134 48.642 15.7663 48.1621 15.9463C47.6822 16.1263 47.1419 16.2158 46.542 16.2158C45.534 16.2158 44.7233 15.9882 44.1113 15.5322C43.4994 15.0642 43.1934 14.4158 43.1934 13.5879C43.1934 12.7599 43.4518 12.1116 43.9678 11.6436C44.4838 11.1756 45.2703 10.8397 46.3262 10.6357L49.5117 10.0059C49.5117 9.32187 49.3559 8.81158 49.0439 8.47559C48.732 8.12771 48.2699 7.95419 47.6582 7.9541C47.1063 7.9541 46.6677 8.08569 46.3438 8.34961C46.0317 8.60161 45.8153 8.96824 45.6953 9.44824L43.3555 9.33984C43.5475 8.31986 44.0158 7.54 44.7598 7C45.5038 6.448 46.4702 6.17188 47.6582 6.17188ZM47.0273 12.0762C46.5118 12.1841 46.1401 12.3458 45.9121 12.5615C45.6961 12.7655 45.5879 13.0361 45.5879 13.3721C45.5879 13.744 45.7073 14.0324 45.9473 14.2363C46.1993 14.4403 46.5538 14.542 47.0098 14.542C47.5257 14.542 47.9698 14.4403 48.3418 14.2363C48.7138 14.0323 49.0021 13.7496 49.2061 13.3896C49.4099 13.0298 49.5117 12.604 49.5117 12.1123V11.5723L47.0273 12.0762Z" fill="var(--fill-0, white)"/>
<path fill-rule="evenodd" clip-rule="evenodd" d="M72.8584 16H70.6621L70.6084 14.5781C70.3444 15.0941 69.9479 15.4962 69.4199 15.7842C68.892 16.0722 68.292 16.2158 67.6201 16.2158C66.8042 16.2158 66.096 16.0124 65.4961 15.6045C64.9081 15.1965 64.4519 14.6143 64.1279 13.8584C63.8039 13.1024 63.6416 12.2143 63.6416 11.1943C63.6416 10.1744 63.8039 9.28626 64.1279 8.53027C64.4519 7.77435 64.9138 7.19217 65.5137 6.78418C66.1137 6.37618 66.8161 6.17188 67.6201 6.17188C68.2919 6.1719 68.8799 6.31005 69.3838 6.58594C69.8997 6.86187 70.2897 7.25205 70.5537 7.75586V3.2207H72.8584V16ZM68.3223 8.04395C67.6263 8.04395 67.0684 8.32662 66.6484 8.89062C66.2405 9.44262 66.0361 10.2104 66.0361 11.1943C66.0361 12.1543 66.2405 12.9221 66.6484 13.498C67.0684 14.062 67.6263 14.3438 68.3223 14.3438C68.8021 14.3437 69.2044 14.2243 69.5283 13.9844C69.8642 13.7444 70.1162 13.3898 70.2842 12.9219C70.4641 12.442 70.5537 11.8661 70.5537 11.1943C70.5537 10.5103 70.4642 9.93382 70.2842 9.46582C70.1162 8.99809 69.8641 8.64425 69.5283 8.4043C69.2044 8.16435 68.8021 8.04399 68.3223 8.04395Z" fill="var(--fill-0, white)"/>
<path fill-rule="evenodd" clip-rule="evenodd" d="M104.737 6.17188C105.685 6.17188 106.514 6.38176 107.222 6.80176C107.93 7.20975 108.475 7.79192 108.859 8.54785C109.255 9.29185 109.453 10.1743 109.453 11.1943C109.453 12.2021 109.255 13.084 108.859 13.8398C108.475 14.5957 107.93 15.1835 107.222 15.6035C106.514 16.0115 105.685 16.2158 104.737 16.2158C103.789 16.2158 102.955 16.0115 102.235 15.6035C101.527 15.1835 100.975 14.5958 100.579 13.8398C100.195 13.084 100.004 12.2021 100.004 11.1943C100.004 10.1744 100.195 9.29183 100.579 8.54785C100.975 7.79185 101.527 7.20976 102.235 6.80176C102.955 6.38178 103.789 6.17189 104.737 6.17188ZM104.737 8.04395C103.993 8.04397 103.418 8.32589 103.01 8.88965C102.602 9.44165 102.397 10.2103 102.397 11.1943C102.398 12.1901 102.602 12.9637 103.01 13.5156C103.418 14.0676 103.993 14.3437 104.737 14.3438C105.481 14.3438 106.051 14.0676 106.447 13.5156C106.855 12.9637 107.06 12.1901 107.06 11.1943C107.06 10.2103 106.855 9.44165 106.447 8.88965C106.051 8.3258 105.481 8.04395 104.737 8.04395Z" fill="var(--fill-0, white)"/>
<path d="M33.7803 8.54785H39.1621V3.2207H41.502V16H39.1621V10.582H33.7803V16H31.4404V3.2207H33.7803V8.54785Z" fill="var(--fill-0, white)"/>
<path d="M58.9102 6.17188C59.6181 6.17191 60.2124 6.32768 60.6924 6.63965C61.1842 6.95156 61.5557 7.38381 61.8076 7.93555C62.0596 8.47555 62.1855 9.10617 62.1855 9.82617V16H59.8818V10.5635C59.8818 10.0238 59.8276 9.56814 59.7197 9.19629C59.6117 8.82429 59.4317 8.54161 59.1797 8.34961C58.9397 8.14578 58.6158 8.04396 58.208 8.04395C57.5962 8.04395 57.1044 8.25974 56.7324 8.69141C56.3725 9.12334 56.1924 9.74767 56.1924 10.5635V16H53.8877V6.3877H55.9756L56.0312 8.03418C56.1279 7.7797 56.2467 7.55486 56.3896 7.36035C56.6896 6.95235 57.0563 6.65196 57.4883 6.45996C57.9202 6.26804 58.3943 6.17188 58.9102 6.17188Z" fill="var(--fill-0, white)"/>
<path d="M77.1328 16H74.8281V6.3877H77.1328V16Z" fill="var(--fill-0, white)"/>
<path d="M84.5547 6.17188C85.2626 6.17188 85.857 6.32774 86.3369 6.63965C86.8288 6.9516 87.2011 7.38367 87.4531 7.93555C87.7051 8.47555 87.8311 9.10617 87.8311 9.82617V16H85.5273V10.5635C85.5273 10.0239 85.4731 9.56812 85.3652 9.19629C85.2572 8.82429 85.0772 8.54161 84.8252 8.34961C84.5853 8.14572 84.2613 8.04402 83.8535 8.04395C83.2416 8.04395 82.7489 8.25954 82.377 8.69141C82.017 9.12334 81.837 9.74767 81.8369 10.5635V16H79.5332V6.3877H81.6211L81.6758 8.03418C81.7724 7.77954 81.8921 7.55495 82.0352 7.36035C82.3351 6.95243 82.7009 6.65197 83.1328 6.45996C83.5647 6.26801 84.0388 6.17192 84.5547 6.17188Z" fill="var(--fill-0, white)"/>
<path d="M116.442 5.00195H115.002C114.63 5.00199 114.354 5.09808 114.174 5.29004C114.006 5.48196 113.922 5.76402 113.922 6.13574V6.64062H117.504V6.00977C117.504 5.14598 117.745 4.46848 118.225 3.97656C118.717 3.47259 119.467 3.2207 120.475 3.2207H122.346V5.00195H120.906C120.534 5.00195 120.258 5.09808 120.078 5.29004C119.91 5.48196 119.826 5.76398 119.826 6.13574V6.64062H122.22V8.42188H119.826V16H117.504V8.42188H113.922V16H111.601V8.42188H110.232V6.64062H111.601V6.00977C111.601 5.14604 111.84 4.46847 112.32 3.97656C112.812 3.47256 113.562 3.2207 114.57 3.2207H116.442V5.00195Z" fill="var(--fill-0, white)"/>
<path d="M1.45703 11.7344C1.71152 12.1595 2.06807 12.516 2.49316 12.7705L2.68457 12.8848L2.49316 13C2.06818 13.2545 1.7115 13.6111 1.45703 14.0361L1.34277 14.2275L1.22852 14.0361C0.973967 13.6109 0.616689 13.2545 0.191406 13L0 12.8848L0.191406 12.7705C0.616692 12.5159 0.973986 12.1597 1.22852 11.7344L1.34277 11.543L1.45703 11.7344Z" fill="var(--fill-0, white)"/>
<path d="M4.3418 11.7344C4.59628 12.1596 4.95377 12.5159 5.37891 12.7705L5.57031 12.8848L5.37891 13C4.95367 13.2546 4.59632 13.6109 4.3418 14.0361L4.22754 14.2275L4.11328 14.0361C3.85871 13.611 3.50142 13.2545 3.07617 13L2.88477 12.8848L3.07617 12.7705C3.50158 12.5159 3.85868 12.1598 4.11328 11.7344L4.22754 11.543L4.3418 11.7344Z" fill="var(--fill-0, white)"/>
<path d="M7.22852 11.7344C7.48298 12.1595 7.83961 12.516 8.26465 12.7705L8.45605 12.8848L8.26465 13C7.8396 13.2545 7.483 13.6111 7.22852 14.0361L7.11426 14.2275L6.99902 14.0361C6.74451 13.6111 6.388 13.2545 5.96289 13L5.77148 12.8848L5.96289 12.7705C6.38809 12.516 6.74449 12.1596 6.99902 11.7344L7.11426 11.543L7.22852 11.7344Z" fill="var(--fill-0, white)"/>
<path d="M13.001 11.7344C13.2555 12.1596 13.6119 12.516 14.0371 12.7705L14.2285 12.8848L14.0371 13C13.6121 13.2544 13.2555 13.6112 13.001 14.0361L12.8857 14.2275L12.7715 14.0361C12.517 13.611 12.1605 13.2545 11.7354 13L11.5439 12.8848L11.7354 12.7705C12.1604 12.516 12.517 12.1595 12.7715 11.7344L12.8857 11.543L13.001 11.7344Z" fill="var(--fill-0, white)"/>
<path d="M15.8857 11.7344C16.1403 12.1596 16.4977 12.516 16.9229 12.7705L17.1143 12.8848L16.9229 13C16.4976 13.2545 16.1403 13.6109 15.8857 14.0361L15.7715 14.2275L15.6572 14.0361C15.4027 13.6109 15.0454 13.2545 14.6201 13L14.4287 12.8848L14.6201 12.7705C15.0455 12.5159 15.4026 12.1598 15.6572 11.7344L15.7715 11.543L15.8857 11.7344Z" fill="var(--fill-0, white)"/>
<path d="M18.7715 11.7344C19.026 12.1596 19.3834 12.5159 19.8086 12.7705L20 12.8848L19.8086 13C19.3834 13.2545 19.026 13.6109 18.7715 14.0361L18.6572 14.2275L18.543 14.0361C18.2885 13.6111 17.9319 13.2545 17.5068 13L17.3154 12.8848L17.5068 12.7705C17.932 12.516 18.2885 12.1596 18.543 11.7344L18.6572 11.543L18.7715 11.7344Z" fill="var(--fill-0, white)"/>
<path d="M1.45703 8.84863C1.71157 9.27389 2.06795 9.6312 2.49316 9.88574L2.68457 10L2.49316 10.1143C2.0679 10.3688 1.71156 10.7261 1.45703 11.1514L1.34277 11.3428L1.22852 11.1514C0.973959 10.726 0.616758 10.3688 0.191406 10.1143L0 10L0.191406 9.88574C0.61684 9.63115 0.973908 9.27405 1.22852 8.84863L1.34277 8.65723L1.45703 8.84863Z" fill="var(--fill-0, white)"/>
<path d="M4.3418 8.84863C4.59634 9.274 4.95361 9.63115 5.37891 9.88574L5.57031 10L5.37891 10.1143C4.95374 10.3688 4.59629 10.7261 4.3418 11.1514L4.22754 11.3428L4.11328 11.1514C3.85868 10.726 3.50161 10.3688 3.07617 10.1143L2.88477 10L3.07617 9.88574C3.50152 9.63121 3.85868 9.27393 4.11328 8.84863L4.22754 8.65723L4.3418 8.84863Z" fill="var(--fill-0, white)"/>
<path d="M15.8857 8.84863C16.1403 9.27402 16.4975 9.63116 16.9229 9.88574L17.1143 10L16.9229 10.1143C16.4976 10.3688 16.1403 10.7261 15.8857 11.1514L15.7715 11.3428L15.6572 11.1514C15.4026 10.726 15.0456 10.3689 14.6201 10.1143L14.4287 10L14.6201 9.88574C15.0455 9.63119 15.4026 9.27397 15.6572 8.84863L15.7715 8.65723L15.8857 8.84863Z" fill="var(--fill-0, white)"/>
<path d="M18.7715 8.84863C19.0261 9.27402 19.3833 9.63116 19.8086 9.88574L20 10L19.8086 10.1143C19.3834 10.3688 19.026 10.7261 18.7715 11.1514L18.6572 11.3428L18.543 11.1514C18.2884 10.726 17.9322 10.3688 17.5068 10.1143L17.3154 10L17.5068 9.88574C17.9321 9.6312 18.2884 9.27389 18.543 8.84863L18.6572 8.65723L18.7715 8.84863Z" fill="var(--fill-0, white)"/>
<path d="M1.45703 5.96289C1.71152 6.38809 2.06804 6.74448 2.49316 6.99902L2.68457 7.11426L2.49316 7.22852C2.06812 7.48299 1.71151 7.83961 1.45703 8.26465L1.34277 8.45605L1.22852 8.26465C0.973958 7.83933 0.616749 7.48309 0.191406 7.22852L0 7.11426L0.191406 6.99902C0.616721 6.74443 0.973975 6.38824 1.22852 5.96289L1.34277 5.77148L1.45703 5.96289Z" fill="var(--fill-0, white)"/>
<path d="M4.3418 5.96289C4.5963 6.38817 4.95372 6.74444 5.37891 6.99902L5.57031 7.11426L5.37891 7.22852C4.9537 7.48307 4.59631 7.83942 4.3418 8.26465L4.22754 8.45605L4.11328 8.26465C3.8587 7.83947 3.50145 7.48301 3.07617 7.22852L2.88477 7.11426L3.07617 6.99902C3.50157 6.74446 3.85868 6.38826 4.11328 5.96289L4.22754 5.77148L4.3418 5.96289Z" fill="var(--fill-0, white)"/>
<path d="M7.22852 5.96289C7.483 6.38805 7.83956 6.74449 8.26465 6.99902L8.45605 7.11426L8.26465 7.22852C7.83956 7.48301 7.48301 7.83956 7.22852 8.26465L7.11426 8.45605L6.99902 8.26465C6.74449 7.83956 6.38805 7.483 5.96289 7.22852L5.77148 7.11426L5.96289 6.99902C6.38813 6.74448 6.74448 6.38813 6.99902 5.96289L7.11426 5.77148L7.22852 5.96289Z" fill="var(--fill-0, white)"/>
<path d="M13.001 5.96289C13.2555 6.38809 13.612 6.7445 14.0371 6.99902L14.2285 7.11426L14.0371 7.22852C13.612 7.48297 13.2555 7.83963 13.001 8.26465L12.8857 8.45605L12.7715 8.26465C12.517 7.83956 12.1605 7.48302 11.7354 7.22852L11.5439 7.11426L11.7354 6.99902C12.1605 6.74449 12.517 6.38804 12.7715 5.96289L12.8857 5.77148L13.001 5.96289Z" fill="var(--fill-0, white)"/>
<path d="M15.8857 5.96289C16.1403 6.38819 16.4976 6.74446 16.9229 6.99902L17.1143 7.11426L16.9229 7.22852C16.4976 7.48305 16.1403 7.83942 15.8857 8.26465L15.7715 8.45605L15.6572 8.26465C15.4026 7.83939 15.0454 7.48305 14.6201 7.22852L14.4287 7.11426L14.6201 6.99902C15.0455 6.74442 15.4026 6.38832 15.6572 5.96289L15.7715 5.77148L15.8857 5.96289Z" fill="var(--fill-0, white)"/>
<path d="M18.7715 5.96289C19.026 6.38818 19.3834 6.74444 19.8086 6.99902L20 7.11426L19.8086 7.22852C19.3834 7.48308 19.026 7.83938 18.7715 8.26465L18.6572 8.45605L18.543 8.26465C18.2885 7.8396 17.9319 7.483 17.5068 7.22852L17.3154 7.11426L17.5068 6.99902C17.932 6.74447 18.2885 6.38811 18.543 5.96289L18.6572 5.77148L18.7715 5.96289Z" fill="var(--fill-0, white)"/>
<path d="M4.3418 3.07715C4.59636 3.50248 4.95361 3.85969 5.37891 4.11426L5.57031 4.22852L5.37891 4.34277C4.95378 4.59733 4.59626 4.9547 4.3418 5.37988L4.22754 5.57129L4.11328 5.37988C3.85868 4.95448 3.50162 4.59737 3.07617 4.34277L2.88477 4.22852L3.07617 4.11426C3.50145 3.85976 3.85869 3.50237 4.11328 3.07715L4.22754 2.88574L4.3418 3.07715Z" fill="var(--fill-0, white)"/>
<path d="M7.22852 3.07715C7.48306 3.50239 7.83944 3.85973 8.26465 4.11426L8.45605 4.22852L8.26465 4.34277C7.83945 4.59733 7.48302 4.95465 7.22852 5.37988L7.11426 5.57129L6.99902 5.37988C6.74446 4.95456 6.38825 4.59735 5.96289 4.34277L5.77148 4.22852L5.96289 4.11426C6.38818 3.85973 6.74445 3.5024 6.99902 3.07715L7.11426 2.88574L7.22852 3.07715Z" fill="var(--fill-0, white)"/>
<path d="M10.1143 3.07715C10.3688 3.50238 10.7261 3.85975 11.1514 4.11426L11.3428 4.22852L11.1514 4.34277C10.726 4.59735 10.3688 4.95452 10.1143 5.37988L10 5.57129L9.88574 5.37988C9.63123 4.95462 9.2739 4.59735 8.84863 4.34277L8.65723 4.22852L8.84863 4.11426C9.27402 3.85969 9.63114 3.50251 9.88574 3.07715L10 2.88574L10.1143 3.07715Z" fill="var(--fill-0, white)"/>
<path d="M13.001 3.07715C13.2555 3.50234 13.6119 3.85976 14.0371 4.11426L14.2285 4.22852L14.0371 4.34277C13.6118 4.59734 13.2556 4.95454 13.001 5.37988L12.8857 5.57129L12.7715 5.37988C12.517 4.95467 12.1606 4.59734 11.7354 4.34277L11.5439 4.22852L11.7354 4.11426C12.1607 3.8597 12.5169 3.50245 12.7715 3.07715L12.8857 2.88574L13.001 3.07715Z" fill="var(--fill-0, white)"/>
<path d="M15.8857 3.07715C16.1403 3.50249 16.4975 3.8597 16.9229 4.11426L17.1143 4.22852L16.9229 4.34277C16.4977 4.59734 16.1402 4.95466 15.8857 5.37988L15.7715 5.57129L15.6572 5.37988C15.4026 4.95448 15.0456 4.59737 14.6201 4.34277L14.4287 4.22852L14.6201 4.11426C15.0454 3.85975 15.4026 3.5024 15.6572 3.07715L15.7715 2.88574L15.8857 3.07715Z" fill="var(--fill-0, white)"/>
<path d="M77.1865 5.11035H74.792V3.05762H77.1865V5.11035Z" fill="var(--fill-0, white)"/>
<path d="M7.22852 0.191406C7.4831 0.616752 7.83933 0.973957 8.26465 1.22852L8.45605 1.34277L8.26465 1.45703C7.8396 1.71151 7.483 2.06812 7.22852 2.49316L7.11426 2.68457L6.99902 2.49316C6.74448 2.06804 6.38809 1.71152 5.96289 1.45703L5.77148 1.34277L5.96289 1.22852C6.38825 0.973972 6.74442 0.616729 6.99902 0.191406L7.11426 0L7.22852 0.191406Z" fill="var(--fill-0, white)"/>
<path d="M10.1143 0.191406C10.3688 0.61676 10.726 0.973958 11.1514 1.22852L11.3428 1.34277L11.1514 1.45703C10.7261 1.71156 10.3688 2.06791 10.1143 2.49316L10 2.68457L9.88574 2.49316C9.6312 2.06795 9.27389 1.71157 8.84863 1.45703L8.65723 1.34277L8.84863 1.22852C9.27405 0.973909 9.63116 0.616834 9.88574 0.191406L10 0L10.1143 0.191406Z" fill="var(--fill-0, white)"/>
<path d="M13.001 0.191406C13.2556 0.616663 13.6118 0.974002 14.0371 1.22852L14.2285 1.34277L14.0371 1.45703C13.612 1.7115 13.2555 2.06808 13.001 2.49316L12.8857 2.68457L12.7715 2.49316C12.517 2.06813 12.1604 1.71152 11.7354 1.45703L11.5439 1.34277L11.7354 1.22852C12.1607 0.973941 12.5169 0.616753 12.7715 0.191406L12.8857 0L13.001 0.191406Z" fill="var(--fill-0, white)"/>
</g>
</svg>
